<?xml version="1.0" encoding="UTF-8"?><svg id="_レイヤー_2" xmlns="http://www.w3.org/2000/svg" viewBox="0 0 1422 517.09"><defs><style>.cls-1{fill:#202020;stroke-width:0px;}</style></defs><g id="_レイヤー_1-2"><path class="cls-1" d="M129.27,193.91v86.18c0,11.9-9.65,21.55-21.55,21.55h-43.09c-11.9,0-21.55-9.65-21.55-21.55v-86.18c0-11.9,9.65-21.55,21.55-21.55h43.09c11.9,0,21.55-9.65,21.55-21.55h0c0-11.9-9.65-21.55-21.55-21.55H21.55c-11.9,0-21.55,9.65-21.55,21.55v344.73c0,11.9,9.65,21.55,21.55,21.55h0c11.9,0,21.55-9.65,21.55-21.55v-129.27c0-11.9,9.65-21.55,21.55-21.55h86.18c11.9,0,21.55-9.65,21.55-21.55v-129.27c0-11.9-9.65-21.55-21.55-21.55h0c-11.9,0-21.55,9.65-21.55,21.55Z"/><rect class="cls-1" x="215.45" y="0" width="43.09" height="344.73" rx="18" ry="18"/><path class="cls-1" d="M323.18,129.27h0c-11.9,0-21.55,9.65-21.55,21.55v172.36c0,11.9,9.65,21.55,21.55,21.55h86.18c11.9,0,21.55-9.65,21.55-21.55h0c0-11.9-9.65-21.55-21.55-21.55h-43.09c-11.9,0-21.55-9.65-21.55-21.55v-129.27c0-11.9-9.65-21.55-21.55-21.55Z"/><rect class="cls-1" x="430.91" y="129.27" width="43.09" height="172.36" rx="21.55" ry="21.55"/><path class="cls-1" d="M689.45,150.82h0c0-11.9-9.65-21.55-21.55-21.55h-129.27c-11.9,0-21.55,9.65-21.55,21.55v86.18c0,11.9,9.65,21.55,21.55,21.55h86.18c11.9,0,21.55,9.65,21.55,21.55h0c0,11.9-9.65,21.55-21.55,21.55h-86.18c-11.9,0-21.55,9.65-21.55,21.55h0c0,11.9,9.65,21.55,21.55,21.55h129.27c11.9,0,21.55-9.65,21.55-21.55v-86.18c0-11.9-9.65-21.55-21.55-21.55h-86.18c-11.9,0-21.55-9.65-21.55-21.55h0c0-11.9,9.65-21.55,21.55-21.55h86.18c11.9,0,21.55-9.65,21.55-21.55Z"/><path class="cls-1" d="M775.64,280.09V21.55c0-11.9-9.65-21.55-21.55-21.55h0c-11.9,0-21.55,9.65-21.55,21.55v301.64c0,11.9,9.65,21.55,21.55,21.55h129.27c11.9,0,21.55-9.65,21.55-21.55h0c0-11.9-9.65-21.55-21.55-21.55h-86.18c-11.9,0-21.55-9.65-21.55-21.55Z"/><path class="cls-1" d="M991.09,150.82h0c0,11.9,9.65,21.55,21.55,21.55h43.09c11.9,0,21.55,9.65,21.55,21.55h0c0,11.9-9.65,21.55-21.55,21.55h-86.18c-11.9,0-21.55,9.65-21.55,21.55v86.18c0,11.9,9.65,21.55,21.55,21.55h129.27c11.9,0,21.55-9.65,21.55-21.55v-172.36c0-11.9-9.65-21.55-21.55-21.55h-86.18c-11.9,0-21.55,9.65-21.55,21.55ZM1055.73,301.64h-43.09c-11.9,0-21.55-9.65-21.55-21.55h0c0-11.9,9.65-21.55,21.55-21.55h43.09c11.9,0,21.55,9.65,21.55,21.55h0c0,11.9-9.65,21.55-21.55,21.55Z"/><path class="cls-1" d="M1292.73,193.91v86.18c0,11.9-9.65,21.55-21.55,21.55h-43.09c-11.9,0-21.55-9.65-21.55-21.55v-86.18c0-11.9,9.65-21.55,21.55-21.55h43.09c11.9,0,21.55-9.65,21.55-21.55h0c0-11.9-9.65-21.55-21.55-21.55h-43.09c-11.9,0-21.55-9.65-21.55-21.55V21.55c0-11.9-9.65-21.55-21.55-21.55h0c-11.9,0-21.55,9.65-21.55,21.55v301.64c0,11.9,9.65,21.55,21.55,21.55h129.27c11.9,0,21.55-9.65,21.55-21.55v-129.27c0-11.9-9.65-21.55-21.55-21.55h0c-11.9,0-21.55,9.65-21.55,21.55Z"/><path class="cls-1" d="M932.26,429.22v-7.82c0-1.56,1.27-2.83,2.83-2.83h69.41c1.56,0,2.83,1.27,2.83,2.83v13.07c0,11.77-1.77,22.24-5.32,31.4-3.55,9.16-8.24,17.03-14.08,23.58-5.03,5.66-10.51,10.2-16.44,13.61-8.65,4.81-17.67,8.26-27.03,10.35-1.75.39-3.42-.99-3.42-2.79v-7.59c0-1.32.93-2.44,2.22-2.74,5.37-1.23,10.42-2.88,15.16-4.98,5.39-2.38,10.6-5.77,15.63-10.17,6.02-5.48,10.78-12.31,14.29-20.48,3.24-7.56,5.17-17.43,5.8-29.61.08-1.61-1.23-3.01-2.84-3.01h-56.2c-1.56,0-2.83-1.27-2.83-2.83ZM994.93,392.7c2.58-2.58,5.68-4.01,9.28-4.27,4.8-.35,9.66,1.69,12.76,5.36,2.54,3,3.67,6.59,3.39,10.75-.2,3.08-1.44,6.1-3.49,8.42-3.08,3.47-6.89,5.21-11.43,5.21-4.13,0-7.64-1.44-10.51-4.31-2.88-2.87-4.31-6.38-4.31-10.51s1.44-7.68,4.31-10.65ZM1012.18,403.35c0-1.97-.65-3.59-1.95-4.85-1.3-1.26-2.9-1.89-4.78-1.89s-3.46.63-4.72,1.89c-1.26,1.26-1.89,2.88-1.89,4.85s.63,3.46,1.89,4.72c1.26,1.26,2.83,1.89,4.72,1.89s3.48-.63,4.78-1.89c1.3-1.26,1.95-2.83,1.95-4.72Z"/><path class="cls-1" d="M1032.26,459.82v-7.14c0-1.56,1.27-2.83,2.83-2.83h74.03c1.6,0,2.92,1.34,2.85,2.94-.36,8.38-1.93,16.12-4.71,23.21-3.1,7.91-7.48,14.38-13.14,19.41-5.39,5.03-11.28,8.98-17.65,11.86-5.21,2.51-10.27,4.4-15.16,5.66-4.01,1.03-8.44,1.97-13.32,2.82-1.72.3-3.32-1.04-3.32-2.79v-7.15c0-2.24,1.02-3.37,2.41-3.59,8.5-1.31,16.77-3.89,24.82-7.75,5.84-2.87,11.07-7.01,15.7-12.4,3.9-4.55,6.67-9.87,8.31-15.95.47-1.75-.91-3.45-2.72-3.45-11.46,0-47.68,0-58.09,0-1.56,0-2.82-1.27-2.82-2.83ZM1038.86,417.63h64.42c1.56,0,2.83,1.27,2.83,2.83v6.87c0,1.56-1.27,2.83-2.83,2.83h-64.42c-1.56,0-2.83-1.27-2.83-2.83v-6.87c0-1.56,1.27-2.83,2.83-2.83Z"/><path class="cls-1" d="M1139.4,428.42v-7.41c0-1.56,1.27-2.83,2.83-2.83h62.8c1.8,0,3.19,1.66,2.78,3.41-1.45,6.18-3.75,12.88-6.89,20.11-3.48,8.02-7.65,15.86-12.51,23.52-.62.97-.58,2.26.09,3.2,4.47,6.27,8.38,11.31,11.74,15.12,3.44,3.91,7.94,8.29,13.5,13.16.61.54.99,1.32.99,2.14v9.64c0,2.35-2.74,3.71-4.56,2.23-4.67-3.8-9.08-7.92-13.23-12.34-4.83-5.14-9.89-11.05-15.21-17.72-1.12-1.41-3.27-1.43-4.43-.05-6.21,7.35-11.88,13.23-17.02,17.64-4.76,4.22-9.41,7.84-13.95,10.85-2.8,1.86-5.39,3.45-7.76,4.78-1.88,1.05-4.17-.34-4.17-2.5v-8.58c0-.98.5-1.87,1.34-2.38,5.89-3.59,12.1-8.26,18.61-14.03,15.62-14.44,27.23-31.53,34.83-51.28.71-1.84-.7-3.84-2.67-3.84h-44.29c-1.56,0-2.83-1.27-2.83-2.83Z"/><path class="cls-1" d="M1236.43,459.82v-7.14c0-1.56,1.27-2.83,2.83-2.83h74.03c1.6,0,2.92,1.34,2.85,2.94-.36,8.38-1.93,16.12-4.71,23.21-3.1,7.91-7.48,14.38-13.14,19.41-5.39,5.03-11.28,8.98-17.65,11.86-5.21,2.51-10.27,4.4-15.16,5.66-4.01,1.03-8.44,1.97-13.32,2.82-1.72.3-3.32-1.04-3.32-2.79v-7.15c0-2.24,1.02-3.37,2.41-3.59,8.5-1.31,16.77-3.89,24.82-7.75,5.84-2.87,11.07-7.01,15.7-12.4,3.9-4.55,6.67-9.87,8.31-15.95.47-1.75-.91-3.45-2.72-3.45-11.46,0-47.68,0-58.09,0-1.56,0-2.82-1.27-2.82-2.83ZM1243.03,417.63h64.42c1.56,0,2.83,1.27,2.83,2.83v6.87c0,1.56-1.27,2.83-2.83,2.83h-64.42c-1.56,0-2.83-1.27-2.83-2.83v-6.87c0-1.56,1.27-2.83,2.83-2.83Z"/><path class="cls-1" d="M1418.5,440.81h-29.24c-1.56,0-2.83,1.27-2.83,2.83v70.62c0,1.56-1.27,2.83-2.83,2.83h-6.87c-1.56,0-2.83-1.27-2.83-2.83v-70.62c0-1.56-1.27-2.83-2.83-2.83h-28.84c-1.56,0-2.83-1.27-2.83-2.83v-7.82c0-1.56,1.27-2.83,2.83-2.83h28.57c1.56,0,2.83-1.27,2.83-2.83v-9.7c0-1.56,1.27-2.83,2.83-2.83h7.41c1.56,0,2.83,1.27,2.83,2.83v9.7c0,1.56,1.27,2.83,2.83,2.83h28.98c1.56,0,2.83,1.27,2.83,2.83v7.82c0,1.56-1.27,2.83-2.83,2.83ZM1355.39,457.12c1.58,0,2.86,1.33,2.84,2.9-.14,9.88-.58,18.33-1.32,25.33-.74,7.08-1.87,15.28-3.38,24.6-.22,1.37-1.42,2.42-2.81,2.42h-7.2c-1.74,0-3.06-1.59-2.79-3.31,1.7-10.53,2.96-19.22,3.77-26.06.81-6.81,1.29-14.5,1.44-23.06.03-1.54,1.28-2.81,2.82-2.81h6.61ZM1398.55,392.43h4.58c1.56,0,2.83,1.27,2.83,2.83v14.29c0,1.56-1.27,2.83-2.83,2.83h-4.58c-1.56,0-2.83-1.27-2.83-2.83v-14.29c0-1.56,1.27-2.83,2.83-2.83ZM1411.94,457.12c1.54,0,2.79,1.27,2.82,2.81.15,8.56.63,16.25,1.45,23.06.81,6.84,2.07,15.53,3.77,26.06.28,1.72-1.04,3.31-2.79,3.31h-7.2c-1.39,0-2.58-1.05-2.81-2.42-1.51-9.32-2.63-17.53-3.38-24.6-.74-7.01-1.18-15.45-1.32-25.33-.02-1.58,1.26-2.9,2.84-2.9h6.61ZM1414.59,392.43h4.58c1.56,0,2.83,1.27,2.83,2.83v14.29c0,1.56-1.27,2.83-2.83,2.83h-4.58c-1.56,0-2.83-1.27-2.83-2.83v-14.29c0-1.56,1.27-2.83,2.83-2.83Z"/><rect class="cls-1" x="1378.91" y="43.09" width="43.09" height="215.45" rx="21.55" ry="21.55"/><rect class="cls-1" x="1378.91" y="301.64" width="43.09" height="43.09" rx="21.55" ry="21.55"/></g></svg>